<?xml version="1.0" encoding="utf-8"?>
<!-- Svg Vector Icons : http://www.onlinewebfonts.com/icon -->
<!DOCTYPE svg PUBLIC "-//W3C//DTD SVG 1.1//EN" "http://www.w3.org/Graphics/SVG/1.1/DTD/svg11.dtd">
<svg version="1.1" xmlns="http://www.w3.org/2000/svg" xmlns:xlink="http://www.w3.org/1999/xlink" x="0px" y="0px" viewBox="0 0 256 256" enable-background="new 0 0 256 256" xml:space="preserve">
<metadata> Svg Vector Icons : http://www.onlinewebfonts.com/icon </metadata>
<g><g><g><path fill="#000000" d="M116.7,10.3C88.9,13.1,64,24.9,44.4,44.5c-18.8,18.8-29.9,41.5-33.9,69c-0.9,6.3-0.7,24.1,0.3,30.7c2,13.4,5.5,24.5,11.2,36c6.2,12.5,13.1,22,22.9,31.7c9.7,9.7,18.7,16,31.1,22.1c11.7,5.7,21.3,8.8,34.5,10.9c7.4,1.2,25.1,1.4,32,0.5c22.7-3.3,42.9-11.9,59.6-25.4c23.8-19.2,38.8-46.1,43.3-77.5c0.8-5.4,0.8-23.6,0-29.1c-3.9-27.3-15.2-50.3-33.9-69c-18.3-18.3-40.6-29.5-66.9-33.5C138.8,10,122.6,9.6,116.7,10.3z M179.1,50.4c10.7,2.7,20.3,11.2,24.6,21.5c2.9,6.9,3.7,16.1,2.1,22.6c-0.4,1.8-1.8,5.4-3,7.9c-3.6,7.5-10.2,13.9-17.8,17.3c-6.6,3-15.8,4-22.9,2.5c-14.4-3-26.1-15.2-28.6-29.7c-0.8-4.6-0.4-12.8,0.9-17c4.4-14,15.9-23.9,30.3-26.1C168.4,48.9,175,49.4,179.1,50.4z M127.2,84.5c0.5,0.4,0.8,1.2,0.8,1.8c0,2.2-0.7,2.3-13.8,2.5L101.9,89l-3,1.5c-3.7,1.8-6.9,5.1-8.6,8.8c-1.2,2.5-1.2,3-1.4,11.4l-0.2,8.8l1.9-1.7c1.1-0.9,2.3-1.7,2.7-1.7c1.1,0,2.4,1.4,2.4,2.5c0,1.2-8.2,9.5-9.5,9.5c-1.2,0-9.5-8.2-9.5-9.3c0-1,1.6-2.7,2.5-2.7c0.4,0,1.5,0.7,2.5,1.7l1.8,1.7v-7.4c0-4.1,0.2-8.5,0.5-9.9c1.8-8.4,8.8-15.7,17.2-17.7c1.6-0.4,6.4-0.6,13.7-0.6C124.9,83.7,126.4,83.8,127.2,84.5z M175,132.3c2.4,2.4,4.3,4.7,4.3,5.1c0,1-1.6,2.7-2.5,2.7c-0.4,0-1.5-0.7-2.5-1.7l-1.8-1.7v7.4c0,4.1-0.2,8.5-0.5,9.9c-1.8,8.6-9.2,16.1-17.9,17.9c-1.4,0.3-7.2,0.5-13.3,0.5c-9.5,0-11-0.1-11.8-0.8c-0.5-0.4-0.8-1.2-0.8-1.8c0-2.2,0.7-2.3,13.8-2.5l12.3-0.2l3-1.5c3.7-1.8,6.9-5.1,8.6-8.8c1.2-2.5,1.2-3,1.4-11.4l0.2-8.8l-1.9,1.7c-1.1,0.9-2.2,1.7-2.5,1.7c1.1,0-2.6-1.4-2.6-2.4c0-1.3,8.2-9.6,9.5-9.6C170.3,128,172.4,129.8,175,132.3z M96.4,134.5c4.6,1.4,9.7,4.2,13.3,7.2c12,9.8,16.6,27.6,10.9,41.8c-2,4.9-4.1,7.9-8.6,12.5c-3.9,3.9-4.9,4.7-9.2,6.7c-6.3,3.1-10.3,4-16.9,4c-6.1,0-10.9-1.2-16.2-3.8c-9.5-4.8-16.5-13.5-19.2-23.8c-1.2-4.7-1.3-12.8-0.3-17.4c3.5-14.3,14.6-25,29-28.1C82.7,132.8,92.7,133.3,96.4,134.5z"/><path fill="#000000" d="M163.3,54.8c-6.5,1.5-11.8,4.4-16.2,8.8c-6.7,6.7-10.3,16.8-9.1,26.1c1,8,3.6,13.3,9.3,19c6.3,6.4,13.4,9.3,22.4,9.3c5.6,0,9.2-0.8,14.5-3.5c3.1-1.5,4.7-2.7,7.9-5.9c4.4-4.4,6.2-7.3,8.1-12.7c1.2-3.3,1.3-4.3,1.3-9.7c0-5.3-0.1-6.5-1.2-9.7c-1.7-5.2-4.2-9.1-8-12.9c-6.1-6-12.8-9-21.4-9.3C167.8,54.2,165.1,54.3,163.3,54.8z M182,71.4V74h-4.3h-4.4l1,2.3l1,2.3h3.4h3.3v2.5v2.5h-3.4h-3.4l-0.6,1.9c-0.8,2.5-4.4,6.1-6.9,6.9c-1,0.3-1.9,0.7-1.9,0.9s2.6,2.8,5.8,5.8l5.8,5.5l-1.8,1.8l-1.8,1.8l-7.6-7.4c-4.2-4.1-7.8-7.4-8.1-7.4s-0.5-0.9-0.5-2.3v-2.2l3.8-0.2c2.2-0.1,4.5-0.6,5.3-1c1.4-0.7,3.4-2.8,3.4-3.6c0-0.2-2.8-0.4-6.2-0.4h-6.2v-2.5v-2.5h6.2c3.4,0,6.2-0.2,6.2-0.4c0-0.8-2.1-3-3.5-3.6c-0.9-0.4-3.1-0.6-5.3-0.6h-3.7v-2.5v-2.5h12.2H182L182,71.4L182,71.4z"/><path fill="#000000" d="M81.3,138.2c-12,1.9-21.9,10.4-25.6,21.9c-2.5,8-1.9,16.3,2,24.2c1.7,3.6,2.7,5,5.9,8.2c3.1,3.1,4.6,4.2,8.2,5.9c5.7,2.8,10.6,3.8,16.4,3.4c13.8-0.9,25.6-10.9,29.1-24.3c1-3.9,1-11.3,0-15.2c-2.4-9.3-9.5-17.7-18.1-21.5C93.9,138.4,86.6,137.3,81.3,138.2z M88,148.9c0.4,0.6,0.7,1.6,0.7,2.3c0,1.1,0.3,1.4,1.7,1.8c3.6,1.2,6.7,5.2,6.7,8.7c0,2.1-0.6,2.9-2.4,2.9c-1.5,0-2-0.6-2.4-2.8c-0.5-2.6-3-4.6-6.1-4.6c-4.5,0-7.5,3.9-5.6,7.3c0.9,1.6,3,2.9,4.9,2.9c4.4,0,9.1,2.7,10.6,6.2c2.3,5.1-0.4,11.3-5.8,13.3c-1.2,0.5-1.7,0.9-1.7,1.6c0,3-2,4.5-4,3.1c-0.8-0.5-1.1-1.1-1.1-2.4c0-1.6-0.1-1.8-1.3-2.1c-4.5-1-8.7-7.6-6.8-10.6c1.3-2,4.4-1.1,4.4,1.2c0,1.5,1.3,3.6,2.8,4.3c0.7,0.4,2.4,0.7,3.6,0.7c1.9,0,2.6-0.2,3.9-1.4c1.9-1.7,2.4-3.2,1.5-5.3c-0.8-1.9-3.2-3.5-5.4-3.5c-5.6,0-10.4-3.8-11.3-8.8c-0.7-3.9,1.8-8.1,5.8-10c2.3-1.1,2.7-1.5,2.7-2.6c0-0.7,0.3-1.7,0.5-2.2C84.8,147.5,87.1,147.6,88,148.9z"/></g></g></g>
</svg>